<svg width="32" height="32" viewBox="0 0 150 150" xmlns="http://www.w3.org/2000/svg" fill="currentColor" stroke="currentColor"><path d="M136.765 93.692c-.372-.172-.791-.138-1.05.085l-18.569 16.049c-.28.244-.302.65-.055.988.113.152.266.273.438.353.211.098.449.135.671.093l8.828-1.655c-3.257 4.067-7.88 7.241-12.476 9.062-8 3.171-16.938 2.763-25.209.993-2.62-.56-5.779-1.083-8.14-2.38V59.624h14.229a2.63 2.63 0 0 0 2.635-2.627c0-1.45-1.18-2.626-2.635-2.626H81.204v-3.974h14.228a2.63 2.63 0 0 0 2.636-2.626c0-1.45-1.18-2.626-2.636-2.626H81.204V24.868c4.265-2.186 7.194-6.607 7.194-11.705C88.398 5.905 82.472 0 75.188 0c-7.284 0-13.21 5.905-13.21 13.163 0 5.333 3.205 9.926 7.792 11.992v19.991H54.943a2.632 2.632 0 0 0-2.636 2.626c0 1.45 1.18 2.626 2.636 2.626H69.77v3.973H54.943a2.632 2.632 0 0 0-2.636 2.627 2.631 2.631 0 0 0 2.636 2.627H69.77v57.152c-.9 1.09-2.863 1.347-4.154 1.722a75.09 75.09 0 0 1-4.585 1.162c-4.722 1.057-9.577 1.55-14.412 1.29-8.943-.475-17.543-4.411-23.074-11.307l8.63 1.616c.222.043.46.006.67-.092.173-.08.326-.201.44-.353.246-.338.224-.744-.056-.988L14.66 93.777c-.258-.223-.678-.257-1.05-.084-.371.174-.615.515-.61.855l.395 24.493c.006.369.304.647.723.675.418.027.852-.204 1.054-.559l4.416-7.818c4.925 23.428 42.594 21.274 54.873 38.466.188.261.572.253.727.016.155.237.54.245.727-.016 12.278-17.19 49.947-15.038 54.872-38.466l4.417 7.818c.201.355.635.586 1.053.559.42-.028.718-.306.724-.675l.394-24.493c.006-.34-.237-.681-.61-.856Zm-70.362-80.53c0-4.826 3.942-8.754 8.785-8.754 4.845 0 8.786 3.927 8.786 8.755 0 4.827-3.941 8.754-8.786 8.754-4.843 0-8.785-3.927-8.785-8.755Zm-45.57 95.973.105.019-.157.072.052-.091Zm108.605.019.105-.019.051.091-.156-.072Z" fill="#0598d1"></path></svg>